<?xml version="1.0" encoding="UTF-8"?>
<svg xmlns="http://www.w3.org/2000/svg" xmlns:xlink="http://www.w3.org/1999/xlink" width="300px" height="35px" viewBox="0 0 299 35" version="1.1">
<g id="surface1">
<path style=" stroke:none;fill-rule:nonzero;fill:rgb(11.764706%,11.764706%,11.764706%);fill-opacity:1;" d="M 88.070312 3.148438 C 85.613281 1.796875 82.695312 1.117188 79.308594 1.117188 L 68.507812 1.117188 L 68.507812 33.164062 L 79.308594 33.164062 C 82.695312 33.164062 85.625 32.496094 88.070312 31.15625 C 90.53125 29.816406 92.40625 27.933594 93.742188 25.515625 C 95.066406 23.097656 95.730469 20.308594 95.730469 17.148438 C 95.730469 13.984375 95.066406 11.195312 93.742188 8.800781 C 92.421875 6.398438 90.53125 4.523438 88.070312 3.160156 Z M 88.476562 22.550781 C 87.6875 24.101562 86.511719 25.304688 84.933594 26.160156 C 83.351562 27.015625 81.398438 27.4375 79.039062 27.4375 L 74.527344 27.4375 L 74.527344 6.84375 L 79.039062 6.84375 C 81.386719 6.84375 83.351562 7.265625 84.933594 8.121094 C 86.511719 8.976562 87.6875 10.167969 88.476562 11.703125 C 89.269531 13.242188 89.664062 15.050781 89.664062 17.148438 C 89.664062 19.242188 89.269531 21.015625 88.476562 22.566406 Z M 88.476562 22.550781 "/>
<path style=" stroke:none;fill-rule:nonzero;fill:rgb(11.764706%,11.764706%,11.764706%);fill-opacity:1;" d="M 116.46875 11.183594 C 114.800781 10.140625 112.75 9.621094 110.3125 9.621094 C 107.878906 9.621094 106.050781 10.179688 104.296875 11.292969 C 102.542969 12.410156 101.15625 13.898438 100.144531 15.746094 C 99.128906 17.59375 98.625 19.613281 98.625 21.785156 C 98.625 23.953125 99.144531 26.183594 100.167969 28.007812 C 101.195312 29.828125 102.601562 31.253906 104.40625 32.308594 C 106.210938 33.351562 108.25 33.871094 110.535156 33.871094 C 112.824219 33.871094 115.195312 33.328125 116.914062 32.234375 C 118.644531 31.144531 120.039062 29.65625 121.101562 27.785156 L 116.371094 25.453125 C 115.839844 26.382812 115.085938 27.152344 114.132812 27.757812 C 113.179688 28.367188 112.007812 28.675781 110.609375 28.675781 C 109.214844 28.675781 108.335938 28.402344 107.375 27.847656 C 106.410156 27.289062 105.644531 26.496094 105.074219 25.429688 C 104.714844 24.757812 104.480469 23.976562 104.359375 23.121094 L 121.410156 23.121094 C 121.4375 22.972656 121.472656 22.726562 121.496094 22.378906 C 121.523438 22.03125 121.546875 21.621094 121.546875 21.152344 C 121.546875 19.03125 121.113281 17.097656 120.25 15.347656 C 119.382812 13.601562 118.125 12.210938 116.457031 11.160156 Z M 104.59375 18.96875 C 104.714844 18.546875 104.851562 18.152344 105.039062 17.777344 C 105.570312 16.726562 106.308594 15.894531 107.25 15.300781 C 108.1875 14.703125 109.214844 14.40625 110.351562 14.40625 C 111.488281 14.40625 111.984375 14.542969 112.648438 14.828125 C 113.316406 15.113281 113.886719 15.472656 114.367188 15.917969 C 114.835938 16.367188 115.21875 16.863281 115.480469 17.394531 C 115.738281 17.929688 115.898438 18.449219 115.925781 18.957031 L 104.59375 18.957031 Z M 104.59375 18.96875 "/>
<path style=" stroke:none;fill-rule:nonzero;fill:rgb(11.764706%,11.764706%,11.764706%);fill-opacity:1;" d="M 134.472656 25.191406 L 134.113281 25.191406 L 128.355469 10.339844 L 121.71875 10.339844 L 131.347656 33.164062 L 137.15625 33.164062 L 146.878906 10.339844 L 140.316406 10.339844 Z M 134.472656 25.191406 "/>
<path style=" stroke:none;fill-rule:nonzero;fill:rgb(11.764706%,11.764706%,11.764706%);fill-opacity:1;" d="M 149.757812 33.164062 L 155.777344 33.164062 L 155.777344 20.359375 L 168.582031 20.359375 L 168.582031 14.628906 L 155.777344 14.628906 L 155.777344 6.84375 L 170.011719 6.84375 L 170.011719 1.117188 L 149.757812 1.117188 Z M 149.757812 33.164062 "/>
<path style=" stroke:none;fill-rule:nonzero;fill:rgb(11.764706%,11.764706%,11.764706%);fill-opacity:1;" d="M 189.613281 11.183594 C 187.945312 10.140625 185.894531 9.621094 183.457031 9.621094 C 181.023438 9.621094 179.195312 10.179688 177.441406 11.292969 C 175.6875 12.410156 174.300781 13.898438 173.289062 15.746094 C 172.273438 17.59375 171.769531 19.613281 171.769531 21.785156 C 171.769531 23.953125 172.289062 26.183594 173.3125 28.007812 C 174.339844 29.828125 175.746094 31.253906 177.550781 32.308594 C 179.355469 33.351562 181.394531 33.871094 183.679688 33.871094 C 185.96875 33.871094 188.339844 33.328125 190.058594 32.234375 C 191.789062 31.144531 193.183594 29.65625 194.246094 27.785156 L 189.515625 25.453125 C 188.980469 26.382812 188.230469 27.152344 187.277344 27.757812 C 186.324219 28.367188 185.152344 28.675781 183.753906 28.675781 C 182.359375 28.675781 181.480469 28.402344 180.515625 27.847656 C 179.554688 27.289062 178.789062 26.496094 178.21875 25.429688 C 177.859375 24.757812 177.625 23.976562 177.503906 23.121094 L 194.554688 23.121094 C 194.582031 22.972656 194.617188 22.726562 194.640625 22.378906 C 194.667969 22.03125 194.691406 21.621094 194.691406 21.152344 C 194.691406 19.03125 194.257812 17.097656 193.394531 15.347656 C 192.527344 13.601562 191.269531 12.210938 189.601562 11.160156 Z M 177.75 18.96875 C 177.871094 18.546875 178.007812 18.152344 178.195312 17.777344 C 178.726562 16.726562 179.46875 15.894531 180.40625 15.300781 C 181.34375 14.703125 182.371094 14.40625 183.507812 14.40625 C 184.644531 14.40625 185.140625 14.542969 185.804688 14.828125 C 186.472656 15.113281 187.042969 15.472656 187.523438 15.917969 C 187.992188 16.367188 188.375 16.863281 188.636719 17.394531 C 188.910156 17.929688 189.054688 18.449219 189.082031 18.957031 L 177.75 18.957031 Z M 177.75 18.96875 "/>
<path style=" stroke:none;fill-rule:nonzero;fill:rgb(11.764706%,11.764706%,11.764706%);fill-opacity:1;" d="M 209.769531 19.550781 L 206.417969 18.746094 C 205.589844 18.535156 204.875 18.226562 204.28125 17.804688 C 203.6875 17.382812 203.390625 16.898438 203.390625 16.328125 C 203.390625 15.757812 203.6875 15.324219 204.28125 14.941406 C 204.875 14.554688 205.675781 14.355469 206.691406 14.355469 C 207.703125 14.355469 208.359375 14.53125 209.125 14.890625 C 209.878906 15.25 210.496094 15.871094 210.980469 16.773438 L 215.972656 14.582031 C 215.441406 13.453125 214.722656 12.507812 213.832031 11.777344 C 212.945312 11.046875 211.882812 10.5 210.671875 10.140625 C 209.445312 9.78125 208.085938 9.609375 206.566406 9.609375 C 205.046875 9.609375 203.441406 9.894531 202.082031 10.464844 C 200.722656 11.035156 199.660156 11.828125 198.867188 12.832031 C 198.078125 13.847656 197.683594 15.039062 197.683594 16.414062 C 197.683594 17.792969 197.992188 18.722656 198.597656 19.664062 C 199.203125 20.605469 200.003906 21.375 200.980469 21.996094 C 201.957031 22.601562 203.007812 23.035156 204.109375 23.269531 L 206.789062 23.855469 C 207.417969 23.976562 208.027344 24.125 208.617188 24.324219 C 209.210938 24.523438 209.707031 24.785156 210.113281 25.132812 C 210.507812 25.476562 210.71875 25.949219 210.71875 26.542969 C 210.71875 27.140625 210.335938 27.957031 209.558594 28.269531 C 208.777344 28.578125 207.925781 28.738281 206.976562 28.738281 C 206.023438 28.738281 204.800781 28.464844 203.933594 27.910156 C 203.070312 27.351562 202.390625 26.542969 201.882812 25.464844 L 196.667969 27.746094 C 197.089844 28.851562 197.71875 29.867188 198.585938 30.785156 C 199.449219 31.714844 200.574219 32.457031 201.957031 33.027344 C 203.34375 33.597656 205.011719 33.882812 206.976562 33.882812 C 208.941406 33.882812 210.386719 33.574219 211.84375 32.964844 C 213.300781 32.359375 214.464844 31.492188 215.328125 30.375 C 216.195312 29.257812 216.625 27.945312 216.625 26.457031 C 216.625 24.96875 216.058594 23.359375 214.910156 22.15625 C 213.757812 20.964844 212.066406 20.097656 209.804688 19.5625 Z M 209.769531 19.550781 "/>
<path style=" stroke:none;fill-rule:nonzero;fill:rgb(11.764706%,11.764706%,11.764706%);fill-opacity:1;" d="M 232.332031 27.820312 C 231.914062 27.957031 231.46875 28.019531 231 28.019531 C 229.984375 28.019531 229.253906 27.757812 228.8125 27.238281 C 228.367188 26.71875 228.144531 25.898438 228.144531 24.796875 L 228.144531 15.347656 L 233.714844 15.347656 L 233.714844 10.339844 L 228.144531 10.339844 L 228.144531 3.894531 L 222.296875 3.894531 L 222.296875 10.339844 L 218.332031 10.339844 L 218.332031 15.347656 L 222.296875 15.347656 L 222.296875 25.863281 C 222.296875 28.253906 222.964844 30.128906 224.300781 31.480469 C 225.636719 32.84375 227.488281 33.511719 229.835938 33.511719 C 232.183594 33.511719 231.246094 33.449219 231.914062 33.3125 C 232.578125 33.175781 233.246094 32.992188 233.902344 32.757812 L 233.902344 27.027344 C 233.273438 27.414062 232.753906 27.671875 232.34375 27.808594 Z M 232.332031 27.820312 "/>
<path style="fill-rule:nonzero;fill:rgb(100%,100%,100%);fill-opacity:1;stroke-width:9.6;stroke-linecap:butt;stroke-linejoin:round;stroke:rgb(11.764706%,11.764706%,11.764706%);stroke-opacity:1;stroke-miterlimit:4;" d="M 2091.003862 9.294475 L 2276.808619 9.294475 C 2348.279282 9.294475 2406.189169 67.235287 2406.189169 138.692472 C 2406.189169 210.181163 2348.279282 268.090468 2276.808619 268.090468 L 2091.003862 268.090468 C 2019.533199 268.090468 1961.591702 210.181163 1961.591702 138.692472 C 1961.591702 67.235287 2019.533199 9.294475 2091.003862 9.294475 Z M 2091.003862 9.294475 " transform="matrix(0.123576,0,0,0.123982,0.134158,0)"/>
<path style=" stroke:none;fill-rule:nonzero;fill:rgb(11.764706%,11.764706%,11.764706%);fill-opacity:1;" d="M 255.09375 22.15625 L 255.09375 20.964844 C 255.121094 20.941406 255.207031 20.839844 255.34375 20.691406 C 255.476562 20.542969 255.664062 20.34375 255.875 20.097656 C 256.082031 19.863281 256.320312 19.601562 256.566406 19.328125 C 256.8125 19.054688 257.058594 18.769531 257.320312 18.5 C 257.566406 18.214844 257.800781 17.964844 258.023438 17.730469 C 258.234375 17.492188 258.40625 17.308594 258.542969 17.171875 C 258.976562 16.699219 259.308594 16.265625 259.519531 15.90625 C 259.730469 15.535156 259.828125 15.152344 259.828125 14.730469 C 259.828125 14.308594 259.753906 14.132812 259.605469 13.886719 C 259.457031 13.625 259.246094 13.425781 258.964844 13.265625 C 258.691406 13.117188 258.371094 13.03125 258 13.03125 C 257.628906 13.03125 257.355469 13.105469 257.097656 13.253906 C 256.835938 13.402344 256.640625 13.589844 256.480469 13.800781 C 256.332031 14.011719 256.21875 14.21875 256.183594 14.429688 L 255.109375 13.996094 C 255.167969 13.800781 255.269531 13.589844 255.40625 13.339844 C 255.539062 13.09375 255.738281 12.871094 255.984375 12.644531 C 256.230469 12.421875 256.515625 12.238281 256.863281 12.101562 C 257.207031 11.964844 257.605469 11.890625 258.046875 11.890625 C 258.492188 11.890625 259.210938 12.027344 259.65625 12.300781 C 260.101562 12.570312 260.445312 12.917969 260.679688 13.339844 C 260.914062 13.761719 261.039062 14.21875 261.039062 14.703125 C 261.039062 15.1875 260.953125 15.535156 260.78125 15.945312 C 260.605469 16.339844 260.382812 16.710938 260.136719 17.058594 C 259.890625 17.40625 259.644531 17.691406 259.40625 17.941406 C 259.285156 18.0625 259.125 18.238281 258.914062 18.460938 C 258.703125 18.683594 258.480469 18.933594 258.234375 19.203125 C 257.988281 19.476562 257.753906 19.726562 257.515625 19.984375 C 257.28125 20.234375 257.085938 20.457031 256.910156 20.644531 C 256.738281 20.828125 256.617188 20.953125 256.554688 21.027344 L 261.125 21.027344 L 261.125 22.167969 L 255.082031 22.167969 Z M 255.09375 22.15625 "/>
<path style=" stroke:none;fill-rule:nonzero;fill:rgb(11.764706%,11.764706%,11.764706%);fill-opacity:1;" d="M 266.15625 22.378906 C 265.5625 22.378906 265.042969 22.242188 264.574219 21.96875 C 264.105469 21.695312 263.707031 21.324219 263.375 20.839844 C 263.042969 20.371094 262.78125 19.8125 262.609375 19.167969 C 262.4375 18.535156 262.335938 17.851562 262.335938 17.121094 C 262.335938 16.390625 262.421875 15.707031 262.609375 15.074219 C 262.78125 14.445312 263.042969 13.886719 263.375 13.402344 C 263.707031 12.917969 264.117188 12.546875 264.574219 12.273438 C 265.042969 12.015625 265.5625 11.878906 266.15625 11.878906 C 266.75 11.878906 267.265625 12.015625 267.738281 12.273438 C 268.207031 12.546875 268.613281 12.917969 268.949219 13.402344 C 269.28125 13.886719 269.542969 14.445312 269.714844 15.074219 C 269.886719 15.707031 269.972656 16.390625 269.972656 17.121094 C 269.972656 17.851562 269.886719 18.535156 269.714844 19.167969 C 269.542969 19.800781 269.28125 20.359375 268.949219 20.839844 C 268.613281 21.3125 268.207031 21.695312 267.738281 21.96875 C 267.265625 22.242188 266.734375 22.378906 266.15625 22.378906 Z M 266.15625 21.25 C 266.699219 21.25 267.167969 21.066406 267.550781 20.703125 C 267.945312 20.34375 268.242188 19.847656 268.453125 19.230469 C 268.664062 18.609375 268.761719 17.914062 268.761719 17.148438 C 268.761719 16.378906 268.664062 15.671875 268.453125 15.050781 C 268.242188 14.429688 267.945312 13.949219 267.550781 13.574219 C 267.15625 13.214844 266.699219 13.03125 266.15625 13.03125 C 265.613281 13.03125 265.15625 13.214844 264.757812 13.574219 C 264.375 13.933594 264.078125 14.429688 263.871094 15.050781 C 263.660156 15.671875 263.558594 16.367188 263.558594 17.148438 C 263.558594 17.929688 263.660156 18.609375 263.871094 19.230469 C 264.078125 19.847656 264.375 20.34375 264.757812 20.703125 C 265.140625 21.066406 265.613281 21.25 266.15625 21.25 Z M 266.15625 21.25 "/>
<path style=" stroke:none;fill-rule:nonzero;fill:rgb(11.764706%,11.764706%,11.764706%);fill-opacity:1;" d="M 271 22.15625 L 271 20.964844 C 271.023438 20.941406 271.109375 20.839844 271.246094 20.691406 C 271.382812 20.542969 271.566406 20.34375 271.777344 20.097656 C 271.988281 19.863281 272.222656 19.601562 272.46875 19.328125 C 272.71875 19.054688 272.964844 18.769531 273.222656 18.5 C 273.472656 18.214844 273.707031 17.964844 273.929688 17.730469 C 274.136719 17.492188 274.3125 17.308594 274.449219 17.171875 C 274.878906 16.699219 275.214844 16.265625 275.421875 15.90625 C 275.632812 15.535156 275.734375 15.152344 275.734375 14.730469 C 275.734375 14.308594 275.660156 14.132812 275.511719 13.886719 C 275.363281 13.625 275.152344 13.425781 274.867188 13.265625 C 274.59375 13.117188 274.273438 13.03125 273.902344 13.03125 C 273.53125 13.03125 273.261719 13.105469 273 13.253906 C 272.742188 13.402344 272.542969 13.589844 272.382812 13.800781 C 272.234375 14.011719 272.125 14.21875 272.085938 14.429688 L 271.011719 13.996094 C 271.074219 13.800781 271.171875 13.589844 271.308594 13.339844 C 271.445312 13.09375 271.640625 12.871094 271.890625 12.644531 C 272.136719 12.421875 272.421875 12.238281 272.765625 12.101562 C 273.113281 11.964844 273.507812 11.890625 273.953125 11.890625 C 274.398438 11.890625 275.113281 12.027344 275.558594 12.300781 C 276.003906 12.570312 276.351562 12.917969 276.585938 13.339844 C 276.820312 13.761719 276.945312 14.21875 276.945312 14.703125 C 276.945312 15.1875 276.855469 15.535156 276.683594 15.945312 C 276.511719 16.339844 276.289062 16.710938 276.042969 17.058594 C 275.792969 17.40625 275.546875 17.691406 275.3125 17.941406 C 275.1875 18.0625 275.027344 18.238281 274.816406 18.460938 C 274.609375 18.683594 274.386719 18.933594 274.136719 19.203125 C 273.890625 19.476562 273.65625 19.726562 273.421875 19.984375 C 273.1875 20.234375 272.988281 20.457031 272.816406 20.644531 C 272.644531 20.828125 272.519531 20.953125 272.457031 21.027344 L 277.03125 21.027344 L 277.03125 22.167969 L 270.988281 22.167969 Z M 271 22.15625 "/>
<path style=" stroke:none;fill-rule:nonzero;fill:rgb(11.764706%,11.764706%,11.764706%);fill-opacity:1;" d="M 277.90625 19.9375 L 277.90625 19.042969 L 282.566406 12.113281 L 283.828125 12.113281 L 283.828125 22.15625 L 282.664062 22.15625 L 282.664062 13.933594 L 282.589844 13.933594 L 279.242188 18.820312 L 284.964844 18.820312 L 284.964844 19.949219 L 277.894531 19.949219 Z M 277.90625 19.9375 "/>
<path style="fill-rule:nonzero;fill:rgb(91.764706%,26.274511%,20.784314%);fill-opacity:1;stroke-width:9.6;stroke-linecap:butt;stroke-linejoin:miter;stroke:rgb(11.764706%,11.764706%,11.764706%);stroke-opacity:1;stroke-miterlimit:10;" d="M 45.300274 49.891777 L 176.309021 49.908724 C 203.746269 49.91533 225.994271 72.148516 226.010507 99.589914 L 226.00669 99.703564 C 225.97887 127.152103 203.761977 149.403043 176.280674 149.403578 L 45.297596 149.405077 C 17.860348 149.398471 -4.413324 127.146839 -4.385504 99.6983 L -4.400073 99.610237 C -4.397923 72.143252 17.84464 49.910758 45.300274 49.891777 Z M 45.300274 49.891777 " transform="matrix(0.100354,-0.0723484,0.0721115,0.100683,-4.48757,10.340064)"/>
<path style="fill-rule:nonzero;fill:rgb(25.882354%,52.156866%,95.686275%);fill-opacity:1;stroke-width:9.6;stroke-linecap:butt;stroke-linejoin:miter;stroke:rgb(11.764706%,11.764706%,11.764706%);stroke-opacity:1;stroke-miterlimit:10;" d="M 110.69151 60.90555 L 110.80516 60.901734 C 138.246558 60.917969 160.50533 83.147586 160.48635 110.603219 L 160.503297 241.611967 C 160.509902 269.049215 138.251822 291.310164 110.810423 291.293928 L 110.696774 291.297744 C 83.255375 291.281509 60.996603 269.051892 61.015583 241.596259 L 60.998636 110.587511 C 60.992031 83.150264 83.250111 60.889315 110.69151 60.90555 Z M 110.69151 60.90555 " transform="matrix(0.0721115,-0.100683,0.100354,0.0723484,-11.840319,20.246193)"/>
<path style="fill-rule:nonzero;fill:rgb(97.647059%,67.058825%,0%);fill-opacity:1;stroke-width:9.6;stroke-linecap:butt;stroke-linejoin:miter;stroke:rgb(11.764706%,11.764706%,11.764706%);stroke-opacity:1;stroke-miterlimit:10;" d="M 302.098053 126.307342 L 433.081131 126.305844 C 460.562434 126.305309 482.792051 148.564081 482.808286 176.00548 L 482.80447 176.119129 C 482.795035 203.542082 460.534086 225.800162 433.096838 225.793557 L 302.113761 225.795056 C 274.658128 225.814036 252.402841 203.536818 252.386605 176.09542 L 252.416092 176.000216 C 252.399856 148.558817 274.660805 126.300737 302.098053 126.307342 Z M 302.098053 126.307342 " transform="matrix(0.100354,-0.0723484,0.0721115,0.100683,-4.03034,30.697841)"/>
<path style="fill-rule:nonzero;fill:rgb(20.392157%,65.882355%,32.549021%);fill-opacity:1;stroke-width:9.6;stroke-linecap:butt;stroke-linejoin:miter;stroke:rgb(11.764706%,11.764706%,11.764706%);stroke-opacity:1;stroke-miterlimit:10;" d="M 367.494124 -15.507335 L 367.607774 -15.511151 C 395.049173 -15.494915 417.282359 6.753087 417.288964 34.190335 L 417.305911 165.199082 C 417.286931 192.654716 395.054436 214.897279 367.587452 214.899429 L 367.499388 214.88486 C 340.05085 214.91268 317.799217 192.639008 317.792612 165.20176 L 317.794111 34.218682 C 317.794646 6.737379 340.071172 -15.4979 367.494124 -15.507335 Z M 367.494124 -15.507335 " transform="matrix(0.0721115,-0.100683,0.100354,0.0723484,9.04396,42.153739)"/>
</g>
</svg>
